<?xml version="1.0" encoding="utf-8" ?><svg xmlns="http://www.w3.org/2000/svg" xmlns:xlink="http://www.w3.org/1999/xlink" width="1024" height="1024" viewBox="0 0 1024 1024"><path fill="white" d="M0 0L1024 0L1024 1024L0 1024L0 0Z"/><path fill="white" d="M511.793 110.509C519.146 113.229 536.773 123.914 544.093 128.093L604.182 162.181C660.965 193.843 717.452 226.034 773.636 258.749L824.603 287.593C829.739 290.548 846.208 298.254 847.478 304.273C849.641 314.527 848.709 327.692 848.818 338.441L848.994 428.608L849.089 474.806C849.111 480.915 849.511 493.322 849.074 498.875C849.604 503.038 849.34 517.154 849.339 521.84L849.116 571.77L849.033 722.714C842.746 728.896 826.046 736.866 817.747 741.617C793.536 755.769 769.157 769.631 744.616 783.202L609.268 860.294L543.806 897.084C537.215 900.768 518.535 911.848 512.215 913.791C505.245 911.327 496.137 905.334 489.373 901.693C472.733 892.738 456.368 882.718 439.844 873.624C389.28 845.401 338.94 816.779 288.827 787.763L226.734 752.541C213.164 744.916 199.484 737.487 185.971 729.75C181.033 726.923 175.8 722.773 175.65 716.431C175.421 706.723 175.664 696.919 175.681 687.193L175.518 629.549L175.503 538.193C175.484 521.88 175.016 503.343 175.567 487.175L175.456 364.292L175.426 328.109C175.385 295.361 175.055 301.581 203.433 285.482L248.215 260.062L428.394 157.745C452.404 144.106 475.984 129.735 500.268 116.562C504.189 114.435 507.606 112.204 511.793 110.509Z"/><defs><linearGradient id="gradient_0" gradientUnits="userSpaceOnUse" x1="507.21881" y1="911.95111" x2="513.8819" y2="465.0224"><stop offset="0" stop-color="#FA8854"/><stop offset="1" stop-color="#916265"/></linearGradient></defs><path fill="url(#gradient_0)" d="M187.572 450.828C188.112 459.656 187.806 471.737 187.824 480.808L188.026 533.528C262.942 577.565 338.301 620.843 414.092 663.355L485.51 704.178C493.076 708.413 504.627 715.682 512.098 719.094C523.584 713.516 534.968 706.693 546.159 700.439L598.708 670.962L759.002 579.626C784.81 564.969 809.976 549.155 836.448 535.63C836.446 528.035 836.197 518.743 836.559 511.286C838.324 509.688 835.427 498.833 838.593 494.327C840.634 493.348 840.779 494.007 843.603 494.13C845.005 492.994 845.284 492.871 847.004 493.402C848.724 496.204 848.463 506.666 848.604 510.46C848.678 506.817 848.701 503.073 849.02 499.451L849.074 498.875C849.604 503.038 849.34 517.154 849.339 521.84L849.116 571.77L849.033 722.714C842.746 728.896 826.046 736.866 817.747 741.617C793.536 755.769 769.157 769.631 744.616 783.202L609.268 860.294L543.806 897.084C537.215 900.768 518.535 911.848 512.215 913.791C505.245 911.327 496.137 905.334 489.373 901.693C472.733 892.738 456.368 882.718 439.844 873.624C389.28 845.401 338.94 816.779 288.827 787.763L226.734 752.541C213.164 744.916 199.484 737.487 185.971 729.75C181.033 726.923 175.8 722.773 175.65 716.431C175.421 706.723 175.664 696.919 175.681 687.193L175.518 629.549L175.503 538.193C175.484 521.88 175.016 503.343 175.567 487.175C176.918 482.292 175.086 463.044 177.038 460.249C179.411 463.289 184.771 462.211 186.888 466.13L186.653 468.381C186.675 468.176 187.219 484.69 187.149 484.444C187.622 474.208 186.623 461.2 187.514 451.409L187.572 450.828Z"/><path fill="#E07A5F" d="M496.107 893.972C499.811 894.045 503.358 898.116 506.542 898.925C509.432 899.66 513.586 897.065 516.255 899.05C518.257 898.896 518.39 898.349 520.343 897.051L520.958 897.201L520.798 898.057C518.825 899.597 514.562 901.447 512.113 902.611C509.288 901.996 498.845 895.876 496.107 893.972Z"/><defs><linearGradient id="gradient_1" gradientUnits="userSpaceOnUse" x1="523.50812" y1="111.95819" x2="508.7984" y2="481.41287"><stop offset="0" stop-color="#2E354A"/><stop offset="1" stop-color="#58515F"/></linearGradient></defs><path fill="url(#gradient_1)" d="M511.793 110.509C519.146 113.229 536.773 123.914 544.093 128.093L604.182 162.181C660.965 193.843 717.452 226.034 773.636 258.749L824.603 287.593C829.739 290.548 846.208 298.254 847.478 304.273C849.641 314.527 848.709 327.692 848.818 338.441L848.994 428.608L849.089 474.806C849.111 480.915 849.511 493.322 849.074 498.875L849.02 499.451C848.701 503.073 848.678 506.817 848.604 510.46C848.463 506.666 848.724 496.204 847.004 493.402C845.284 492.871 845.005 492.994 843.603 494.13C840.779 494.007 840.634 493.348 838.593 494.327C835.427 498.833 838.324 509.688 836.559 511.286C835.973 501.519 836.447 486.044 836.43 475.934L836.413 400.113L836.28 340.669C836.278 332.15 835.942 316.052 836.8 307.937C790.999 282.172 745.355 256.127 699.871 229.805L614.113 181.188C593.233 169.152 572.272 157.26 551.229 145.511C539.337 138.722 524.144 129.435 512.16 123.558C504.49 127.196 495.199 133.016 487.66 137.314L445.445 161.275L326.983 228.939C293.45 247.714 260.028 266.685 226.717 285.851C217.141 291.383 195.39 302.702 187.604 308.755C187.069 343.911 188.15 379.723 187.652 414.936C187.484 426.81 187.937 438.987 187.572 450.828L187.514 451.409C186.623 461.2 187.622 474.208 187.149 484.444C187.219 484.69 186.675 468.176 186.653 468.381L186.888 466.13C184.771 462.211 179.411 463.289 177.038 460.249C175.086 463.044 176.918 482.292 175.567 487.175L175.456 364.292L175.426 328.109C175.385 295.361 175.055 301.581 203.433 285.482L248.215 260.062L428.394 157.745C452.404 144.106 475.984 129.735 500.268 116.562C504.189 114.435 507.606 112.204 511.793 110.509Z"/><defs><linearGradient id="gradient_2" gradientUnits="userSpaceOnUse" x1="521.32562" y1="130.79095" x2="502.19083" y2="711.20959"><stop offset="0" stop-color="#072F4D"/><stop offset="1" stop-color="#BF7166"/></linearGradient></defs><path fill="url(#gradient_2)" d="M194.027 311.372C223.364 294.922 252.582 278.261 281.679 261.391L427.251 178.997L487.277 144.763C495.523 140.065 503.973 134.913 512.292 130.446L720.653 249.044L786.478 286.636C797.408 292.787 820.553 305.131 830.489 312.167L830.32 460.366C830.249 482.896 830.715 509.755 829.836 532.107C828.389 532.924 826.546 534.052 825.057 534.692C823.25 536.155 803.123 547.236 799.441 549.322L738.232 584.244L573.064 677.805C560.042 685.065 546.937 693.14 533.833 700.349C527.143 704.029 518.686 709.453 511.7 712.188C508.85 710.921 502.292 706.827 499.31 705.126C489.971 699.845 480.682 694.477 471.443 689.023C468.527 687.316 465.464 685.391 462.494 683.817C443.762 673.89 425.664 662.974 407.28 652.448L300.524 591.552C281.825 580.859 258.41 568.15 240.689 556.582C240.824 554.957 240.631 553.894 240.348 552.348L239.64 552.253L239.062 552.979C239.463 554.421 239.507 554.036 239.432 555.446C236.811 554.586 227.382 549.005 224.338 547.272L194.516 530.278C194.554 522.427 194.173 514.158 194.142 506.17C193.791 465.069 193.75 423.966 194.017 382.864C193.615 361.234 193.172 332.722 194.027 311.372Z"/><path fill="white" d="M512.116 136.286C522.618 141.658 534.166 148.523 544.569 154.381L623.624 199.464L758.775 276.881C780.69 289.444 804.544 302.201 826.058 315.035L826.215 437.494C826.353 461.315 826.256 485.137 825.924 508.957L755.224 467.588C745.71 462.099 735.957 456.863 726.509 451.302L690.63 430.282C685.36 427.155 674.651 420.364 669.585 418.182C669.11 417.577 664.918 415.131 663.962 414.544L663.853 392.195L664.121 300C659.692 296.547 648.681 290.913 643.316 287.876L600.697 263.729L549.701 234.781C537.26 227.641 524.963 220.201 512.055 213.917C483.519 229.531 455.146 245.439 426.939 261.639C405.67 273.647 380.435 287.2 359.702 300.034C360.157 311.081 359.916 323.415 359.888 334.542L359.804 389.4C359.808 397.391 359.529 407.598 359.882 415.44C357.563 416.467 354.532 418.287 352.252 419.609C330.764 432.073 308.948 444.208 287.376 456.503L230.888 488.556C221.517 493.901 207.33 501.602 198.761 507.539C198.019 479.674 199.084 450.686 198.68 422.729C198.529 412.298 198.938 401.684 198.525 391.257C198.891 383.1 198.624 373.333 198.602 365.088L198.561 314.268C227.794 298.504 256.167 281.576 285.013 265.2L432.959 181.341L481.201 153.883C491.28 148.111 501.947 141.702 512.116 136.286Z"/><path fill="white" d="M466.507 373.172C479.221 365.418 498.115 353.93 511.295 347.232C518.485 350.429 527.589 355.995 534.641 359.962C541.477 363.807 550.607 368.7 556.901 373.085C556.899 389.368 556.16 413.01 557.032 428.722C556.776 431.596 556.956 438.023 556.969 441.117L557.057 465.588L557.112 538.264L557.075 632.636C556.902 648.96 557.005 665.286 557.384 681.607C547.464 687.892 536.428 693.224 526.379 699.411C522.034 702.086 517.13 704.907 512.613 707.195C510.14 705.99 507.716 704.706 505.329 703.342C492.486 696.002 479.305 689.191 466.692 681.46C466.258 661.541 466.725 639.942 466.651 619.838L466.413 398.683C466.549 390.18 466.58 381.676 466.507 373.172Z"/><path fill="white" d="M663.78 491.308C663.367 478.976 663.947 464.594 663.711 451.992C663.56 443.926 663.268 427.081 664.021 419.81C665.171 419.43 665.522 419.981 667.024 420.71C672.235 424.571 683.22 430.557 689.16 434.054L736.037 461.352C743.532 465.628 756.624 472.521 763.406 477.051C762.745 481.453 763.187 498.444 763.154 503.968L762.706 565.416C739.606 578.873 716.139 591.561 693.004 604.861L654.914 626.499C644.39 632.484 633.827 638.727 622.971 644.054C605.035 631.162 583.193 620.97 565.103 608.742C573.4 602.752 591.546 593.357 600.904 587.983L687.697 538.785C693.475 535.468 712.39 525.679 716.127 521.846C715.232 519.367 669.66 494.341 663.78 491.308Z"/><path fill="white" d="M359.405 420.925C360.112 424.374 359.739 440.346 359.711 444.987L359.624 492.027C344.442 501.258 320.57 512.362 306.963 522.287C357.969 550.066 407.85 580.248 458.476 608.672C442.838 618.217 423.769 628.149 408.75 638.28C405.986 640.082 403.185 642.168 400.492 644.107C390.459 637.84 379.216 631.937 368.897 625.894L262.444 564.752C262.926 535.436 262.596 505.386 262.805 475.943C273.32 468.783 293.395 458.625 305.05 452.134C323.298 441.97 341.253 430.939 359.405 420.925Z"/><path fill="white" d="M511.208 227.433C512.814 227.157 521.753 232.784 523.742 233.896C534.297 239.805 544.82 245.769 555.312 251.788L652.897 307.724C622.98 324.433 591.032 345.059 560.941 360.493C547.942 353.119 534.902 345.819 521.821 338.591C537.925 330.533 558.778 317.477 574.945 308.198C567.475 302.949 551.871 294.852 543.299 289.962C536.296 285.967 519.311 276.035 512.679 273.34C506.728 275.977 498.773 280.899 492.8 284.244L450.127 308.478C456.742 312.003 463.148 316.055 469.659 319.796L502.339 338.234C490.566 344.177 475.206 353.75 463.468 360.6C456.16 357.152 448.265 352.373 441.196 348.31L412.108 331.782C403.665 327.013 395.19 322.302 386.683 317.649C381.53 314.814 374.649 311.244 369.86 307.991C391.613 295.4 413.444 282.946 435.353 270.63C445.723 264.747 456.083 258.37 466.443 252.59C481.589 244.139 496.42 236.669 511.208 227.433Z"/><path fill="white" d="M610.073 465.87C612.362 466.948 614.73 468.532 616.957 469.804C631.124 477.9 644.97 486.687 659.482 494.157C659.485 511.23 658.969 532.544 659.916 549.47C654.378 552.049 647.566 556.021 642.083 559.046C631.6 564.776 620.722 571.258 610.338 577.243C609.941 540.12 609.853 502.994 610.073 465.87Z"/><path fill="white" d="M413.475 466.457C413.757 468.552 413.573 475.41 413.55 477.755C413.474 484.635 413.439 491.516 413.447 498.397L413.5 577.922C403.474 572.258 392.974 565.637 382.782 559.769C376.638 556.489 370.029 552.462 364.112 548.8C364.49 531.243 363.807 513.132 364.127 495.358C377.301 486.551 399.2 474.728 413.475 466.457Z"/><path fill="white" d="M784.731 491.264L785.265 489.856C786.563 489.985 821.292 510.558 825.409 512.944C825.393 517.19 825.55 523.039 825.279 527.156L825.791 527.756L824.099 528.06C823.817 530.81 825.18 530.05 824.935 532.388C823.458 532.838 824.061 532.747 822.437 532.459C821.628 532.844 820.66 533.212 820.011 533.77L820.141 534.801C817.332 536.03 815.172 538.741 812.712 538.441C806.611 537.699 801.836 532.255 796.181 530.431C794.757 529.977 790.303 527.163 789.327 526.086C788.875 527.435 788.982 526.983 788.926 528.419C791.976 530.01 806.482 537.836 807.925 539.444L807.801 540.848L807.707 540.097C803.158 542.945 799.303 545.282 794.561 547.861C788.622 545.235 783.309 541.645 776.836 538.926C774.431 540.382 770.135 543.294 767.569 543.62L767.018 543.116C767.016 541.287 766.702 539.755 767.527 538.377L767.516 534.457C766.37 532.466 766.83 524.302 766.873 521.44C770.298 519.592 779.73 514.604 782.203 512.285C782.252 511.114 786.025 507.87 787.235 506.617L787.216 506.471C785.866 505.916 785.656 505.936 784.578 504.997C784.21 503.038 784.24 502.787 784.368 500.747L784.405 500.207C784.797 497.737 784.703 493.863 784.731 491.264Z"/><path fill="white" d="M784.731 491.264L785.265 489.856C786.563 489.985 821.292 510.558 825.409 512.944C825.393 517.19 825.55 523.039 825.279 527.156L825.791 527.756L824.099 528.06C823.817 530.81 825.18 530.05 824.935 532.388C823.458 532.838 824.061 532.747 822.437 532.459L823.775 531.258C823.054 530.202 790.16 511.562 786.049 509.192C784.527 511.009 784.316 511.23 782.203 512.285C782.252 511.114 786.025 507.87 787.235 506.617L787.216 506.471C785.866 505.916 785.656 505.936 784.578 504.997C784.21 503.038 784.24 502.787 784.368 500.747L784.405 500.207C784.797 497.737 784.703 493.863 784.731 491.264Z"/><defs><linearGradient id="gradient_3" gradientUnits="userSpaceOnUse" x1="804.35358" y1="528.73322" x2="804.66113" y2="507.23837"><stop offset="0" stop-color="#5B424E"/><stop offset="1" stop-color="#504A55"/></linearGradient></defs><path fill="url(#gradient_3)" d="M784.405 500.207C784.797 497.737 784.703 493.863 784.731 491.264C785.106 495.626 785.075 500.024 785.114 504.405C792.284 508.418 799.435 512.287 806.6 516.353C811.829 519.32 820.059 524.689 825.279 527.156L825.791 527.756L824.099 528.06C823.817 530.81 825.18 530.05 824.935 532.388C823.458 532.838 824.061 532.747 822.437 532.459L823.775 531.258C823.054 530.202 790.16 511.562 786.049 509.192C784.527 511.009 784.316 511.23 782.203 512.285C782.252 511.114 786.025 507.87 787.235 506.617L787.216 506.471C785.866 505.916 785.656 505.936 784.578 504.997C784.21 503.038 784.24 502.787 784.368 500.747L784.405 500.207Z"/><path fill="white" d="M787.015 528.441C793.972 532.22 800.87 536.105 807.707 540.097C803.158 542.945 799.303 545.282 794.561 547.861C788.622 545.235 783.309 541.645 776.836 538.926C774.431 540.382 770.135 543.294 767.569 543.62L767.018 543.116C767.016 541.287 766.702 539.755 767.527 538.377C774.13 535.635 780.453 531.609 787.015 528.441Z"/><path fill="#644953" d="M787.207 523.748C792.039 527.061 807.021 535.433 812.254 537.837L820.011 533.77L820.141 534.801C817.332 536.03 815.172 538.741 812.712 538.441C806.611 537.699 801.836 532.255 796.181 530.431C794.757 529.977 790.303 527.163 789.327 526.086C788.875 527.435 788.982 526.983 788.926 528.419C791.976 530.01 806.482 537.836 807.925 539.444L807.801 540.848L807.707 540.097C800.87 536.105 793.972 532.22 787.015 528.441C780.453 531.609 774.13 535.635 767.527 538.377L767.516 534.457C774.106 530.937 780.67 527.367 787.207 523.748Z"/><path fill="white" d="M664.013 496.281C668.735 498.434 677.048 503.709 681.808 506.525C690.783 511.785 699.796 516.978 708.848 522.103C703.627 524.738 698.399 527.749 693.28 530.605C683.388 535.935 673.657 541.559 664.102 547.472C663.673 531.408 663.72 512.341 664.013 496.281Z"/><path fill="white" d="M359.348 497.446C359.809 499.657 359.666 509.585 359.685 512.37L359.932 546.889C350.879 542.096 341.905 537.154 333.015 532.066L316.006 522.269C327.606 514.861 347.153 504.001 359.348 497.446Z"/><path fill="white" d="M561.631 611.714C564.03 612.87 570.412 617.374 573.46 619.058C586.585 626.308 599.807 635.153 612.904 642.253L612.767 650.313L606.471 654.064L597.625 659.142C597.485 655.568 597.784 652.598 598.073 649.04C596.507 646.729 566.423 629.369 561.461 626.457C561.484 621.543 561.54 616.628 561.631 611.714Z"/><path fill="white" d="M216.453 522.918C222.825 524.979 251.411 542.477 258.46 546.768C258.475 553.021 258.488 558.866 258.182 565.115C254.656 563.423 251.183 561.624 247.765 559.721L245.462 558.194C243.657 555.281 245.053 548.832 245.388 544.921C234.427 551.776 231.81 547.106 221.511 541.16C215.329 537.554 209.085 534.054 202.784 530.66C206.954 527.993 212.066 525.333 216.453 522.918Z"/><path fill="white" d="M233.933 492.013C235.018 493.043 234.602 512.128 234.598 514.732C237.803 517.105 254.626 526.59 258.259 528.042L258.146 542.324L250.777 537.756C241.274 531.933 230.195 525.424 220.405 520.149L220.456 499.39L233.933 492.013Z"/><path fill="white" d="M258.076 478.516C259.002 479.427 258.789 496.667 258.865 499.419C256.287 501.797 254.288 502.735 251.22 504.418C253.827 506.788 253.896 506.986 257.388 507.044L257.984 507.049C259.011 508.606 258.321 521.127 258.242 523.799L252.31 520.737C247.817 518.299 243.819 515.435 239.152 513.092L239.101 488.89C245.228 485.041 251.643 481.807 258.076 478.516Z"/><path fill="white" d="M561.637 631.263C564.405 632.558 570.226 636.219 573.105 637.92C579.983 641.982 587.217 646.138 593.923 650.44C594.022 654.091 594.12 657.506 594.402 661.146L590.299 663.292C586.919 665.274 583.45 667.082 579.989 668.92L579.83 656.76C573.58 653.602 567.83 649.137 561.567 646.136C561.547 641.178 561.57 636.22 561.637 631.263Z"/><path fill="white" d="M441.796 623.923L442.785 624.158C443.439 637.552 443.28 654.876 443.368 668.583L435.224 664.118L429.015 660.423L429.025 630.61C433.636 627.985 437.012 626.219 441.796 623.923Z"/><path fill="white" d="M510.105 296.495C523.805 296.111 525.066 319.291 514.185 327.267C501.304 329.25 498.188 303.899 510.105 296.495Z"/><path fill="white" d="M625.097 350.505C639.639 349.173 636.022 372.608 624.635 379.94C611.592 381.381 612.56 357.073 625.097 350.505Z"/><path fill="white" d="M766.978 479.424C771.848 481.903 776.642 484.529 781.353 487.298C781.334 491.039 781.082 505.918 781.678 508.611C777.413 510.519 771.48 514.383 766.924 516.754C767.006 512.061 767.01 507.367 766.937 502.674C767.076 494.925 767.089 487.173 766.978 479.424Z"/><path fill="white" d="M595.268 419.468C605.865 420.94 603.438 434.386 600.011 441.156C597.817 445.489 596.049 447.214 591.534 448.717C577.862 445.681 583.252 424.027 595.268 419.468Z"/><path fill="white" d="M393.497 349.943C406.352 351.04 412.484 371.976 402.132 379.219C391.651 379.84 383.112 357.982 393.497 349.943Z"/><path fill="white" d="M425.976 419.962C438.471 420.797 445.224 439.89 435.62 448.631C424.725 448.241 416.4 428.837 425.976 419.962Z"/><path fill="white" d="M215.218 502.461L215.496 502.518C216.528 504.057 215.954 516.306 215.909 519.022C211.191 521.767 204.805 525.144 199.883 527.301L199.246 526.898C198.745 523.384 199.026 515.537 199.06 511.677C204.428 508.573 209.814 505.501 215.218 502.461Z"/><path fill="white" d="M461.584 650.428C461.615 650.444 461.653 650.451 461.678 650.476C463.234 652.118 462.513 666.493 462.495 669.696C458.416 672.164 456.025 675.517 451.332 673.325L447.558 671.187C447.171 656.011 448.554 656.929 461.584 650.428Z"/><path fill="white" d="M561.545 650.281C566.692 653.111 571.881 656.991 576.52 660.594C576.509 663.904 577.271 670.141 574.487 671.926L569.033 675.03C565.657 673.412 564.025 672.342 561.35 669.753L561.545 650.281Z"/><path fill="white" d="M424.107 633.916L424.515 634.059C425.477 636.12 424.895 654.529 424.844 658.237C421.301 655.983 417.623 653.765 414.044 651.55C410.948 649.779 407.888 647.943 404.868 646.045C409.631 642.344 418.784 636.691 424.107 633.916Z"/><path fill="white" d="M461.292 611.959C463.132 613.844 462.569 623.282 462.532 626.305C458.309 628.699 452.774 632.801 448.209 635.579C446.117 634.737 446.969 623.036 446.995 620.528C451.7 617.571 456.467 614.714 461.292 611.959Z"/><path fill="white" d="M777.203 543.428C779.718 544.129 787.551 548.698 790.057 550.18C785.388 552.571 780.777 555.326 776.229 557.958C772.766 559.941 770.706 561.019 767.056 562.605L767.023 549.547L777.203 543.428Z"/><path fill="white" d="M461.948 631.115C463.025 632.687 462.603 643.249 462.59 645.805C457.665 648.587 452.809 651.38 447.76 653.936C446.436 651.88 446.918 643.155 446.946 640.24C451.929 637.093 456.781 633.96 461.948 631.115Z"/></svg>